<?xml version="1.0" encoding="iso-8859-1"?>
<!-- Generator: Adobe Illustrator 19.0.0, SVG Export Plug-In . SVG Version: 6.00 Build 0)  -->
<svg version="1.1" id="Capa_1" xmlns="http://www.w3.org/2000/svg" xmlns:xlink="http://www.w3.org/1999/xlink" x="0px" y="0px"
	 viewBox="0 0 512 512" style="enable-background:new 0 0 512 512;" xml:space="preserve">
<g>
	<g>
		<g>
			<path d="M504,0.4h-72c-4,0-6.4,2.4-8,5.6l-30.4,114.4h-98.4c-4-48.8-44.8-88-95.2-88c-50.4,0-91.2,39.2-95.2,88H8
				c-2.4,0-4.8,0.8-6.4,3.2C0,125.2,0,127.6,0,130l40,200c0.8,4,4,6.4,8,6.4h320v72H80c-3.2,0-5.6,1.6-7.2,4l-17.6,32
				c-2.4,4-0.8,8.8,3.2,11.2c0.8,0.8,2.4,0.8,3.2,0.8c2.4,0,5.6-1.6,7.2-4l16-28H376c4.8,0,8-3.2,8-8v-87.2l8-66.4
				c0.8-4-2.4-8-7.2-8.8c-4-0.8-8,2.4-8.8,7.2l-7.2,59.2H54.4l-36.8-184H104c4,48.8,45.6,88,95.2,88s91.2-39.2,95.2-88h95.2
				l-4.8,39.2c-0.8,4,2.4,8,7.2,8.8h0.8c4,0,7.2-3.2,8-7.2l5.6-47.2l32-113.6H504c4.8,0,8-3.2,8-8S508.8,0.4,504,0.4z M200,208.4
				c-44.8,0-80-35.2-80-80s35.2-80,80-80s80,35.2,80,80S244.8,208.4,200,208.4z"/>
			<path d="M391.2,200.4c-4-0.8-8,2.4-8.8,7.2l-1.6,16c-0.8,4,2.4,8,7.2,8.8h0.8c4,0,7.2-3.2,8-7.2l1.6-16
				C399.2,205.2,396,201.2,391.2,200.4z"/>
			<path d="M150.4,438c-20,0-36.8,16.8-36.8,36.8s16.8,36.8,36.8,36.8s36.8-16.8,36.8-36.8S170.4,438,150.4,438z M150.4,494.8
				c-11.2,0-20.8-9.6-20.8-20.8c0-11.2,9.6-20.8,20.8-20.8c11.2,0,20.8,9.6,20.8,20.8C171.2,485.2,161.6,494.8,150.4,494.8z"/>
			<path d="M321.6,438c-20,0-36.8,16.8-36.8,36.8s16.8,36.8,36.8,36.8s36.8-16.8,36.8-36.8S342.4,438,321.6,438z M321.6,494.8
				c-11.2,0-20.8-9.6-20.8-20.8c0-11.2,9.6-20.8,20.8-20.8c11.2,0,20.8,9.6,20.8,20.8C342.4,485.2,333.6,494.8,321.6,494.8z"/>
			<path d="M368,168.4c0-4.8-3.2-8-8-8h-40c-4.8,0-8,3.2-8,8s3.2,8,8,8h40C364.8,176.4,368,173.2,368,168.4z"/>
			<path d="M360,208.4c0-4.8-3.2-8-8-8h-56c-4.8,0-8,3.2-8,8s3.2,8,8,8h56C356.8,216.4,360,213.2,360,208.4z"/>
			<path d="M352,248.4c0-4.8-3.2-8-8-8H80c-4.8,0-8,3.2-8,8s3.2,8,8,8h264C348.8,256.4,352,253.2,352,248.4z"/>
			<path d="M88,280.4c-4.8,0-8,3.2-8,8s3.2,8,8,8h152c4.8,0,8-3.2,8-8s-3.2-8-8-8H88z"/>
			<path d="M120,400.4c4.8,0,8-3.2,8-8s-3.2-8-8-8h-8c-4.8,0-8,3.2-8,8s3.2,8,8,8H120z"/>
			<path d="M152,400.4c4.8,0,8-3.2,8-8s-3.2-8-8-8h-8c-4.8,0-8,3.2-8,8s3.2,8,8,8H152z"/>
			<path d="M80,400.4h8c4.8,0,8-3.2,8-8s-3.2-8-8-8h-8c-4.8,0-8,3.2-8,8S75.2,400.4,80,400.4z"/>
			<path d="M296,280.4c-4.8,0-8,3.2-8,8s3.2,8,8,8h8c4.8,0,8-3.2,8-8s-3.2-8-8-8H296z"/>
			<path d="M328,280.4c-4.8,0-8,3.2-8,8s3.2,8,8,8h8c4.8,0,8-3.2,8-8s-3.2-8-8-8H328z"/>
			<path d="M264,280.4c-4.8,0-8,3.2-8,8s3.2,8,8,8h8c4.8,0,8-3.2,8-8s-3.2-8-8-8H264z"/>
			<path d="M240,120.4h-32v-32c0-4.8-3.2-8-8-8s-8,3.2-8,8v32h-32c-4.8,0-8,3.2-8,8s3.2,8,8,8h32v32c0,4.8,3.2,8,8,8s8-3.2,8-8v-32
				h32c4.8,0,8-3.2,8-8S244.8,120.4,240,120.4z"/>
		</g>
	</g>
</g>
<g>
</g>
<g>
</g>
<g>
</g>
<g>
</g>
<g>
</g>
<g>
</g>
<g>
</g>
<g>
</g>
<g>
</g>
<g>
</g>
<g>
</g>
<g>
</g>
<g>
</g>
<g>
</g>
<g>
</g>
</svg>
