<svg width="232" height="180" viewBox="0 0 232 180" fill="none" xmlns="http://www.w3.org/2000/svg">
<g clip-path="url(#clip0)">
<path d="M78.4388 157.452C89.8826 158.959 101.426 159.184 112.942 159.636C118.221 159.844 123.397 159.594 128.271 161.534C132.835 163.35 136.48 166.997 141.189 168.56C144.9 169.629 148.791 169.876 152.603 169.285C160.362 168.381 167.862 165.879 174.653 161.93C181.444 157.98 187.384 152.664 192.117 146.303C196.85 139.941 200.277 132.664 202.194 124.91C204.11 117.156 204.475 109.086 203.267 101.184C201.901 92.052 197.798 83.5362 196.814 74.3363C195.775 64.6094 199.402 56.1296 201.694 46.8779C203.294 40.4164 203.99 33.755 203.761 27.0932C203.629 23.2619 203.159 19.3346 201.389 15.9563C196.582 6.77953 184.461 5.04698 174.343 6.08337C161.702 7.38992 149.448 11.2887 138.309 17.5475C129.609 22.4678 120.993 29.6291 111.009 31.5706C99.7511 33.7599 91.0443 25.858 80.9121 22.2542C58.1166 14.1452 30.5941 30.0747 20.5449 51.2611C8.13895 77.4159 9.55155 120.202 32.7721 139.612C45.4263 150.19 61.7326 155.19 77.9252 157.377L78.4388 157.452Z" fill="#FFE5D2"/>
<path d="M48.8736 137.53L48.295 136.32L32.1819 148.93L39.2117 160.594L55.2517 146.742L48.8736 137.53Z" fill="#F97A5D"/>
<path d="M32.8572 149.198L39.0322 160.137L39.4275 159.953L33.9277 149.725L32.8572 149.198Z" fill="#D5D3D3"/>
<path d="M48.556 137.29L32.8572 149.199C32.8975 149.298 32.959 149.386 33.0371 149.458C33.1152 149.529 33.2079 149.582 33.3085 149.612C33.5008 149.703 33.7125 149.744 33.9241 149.729L50.4326 138.159C49.9803 138.058 49.544 137.893 49.1364 137.668C48.9541 137.525 48.7599 137.398 48.556 137.29Z" fill="#F4F3F3"/>
<path d="M50.836 137.693L33.6334 149.458L39.2199 160.304L40.1225 161.806L57.3261 148.765C57.3261 148.765 55.5135 145.991 54.4258 144.327C53.3382 142.663 51.2025 138.711 51.086 138.458C50.9861 138.209 50.9025 137.953 50.836 137.693Z" fill="#F97A5D"/>
<path d="M192.703 56.4393L193.189 55.4224L206.719 66.0109L200.816 75.8062L187.347 64.1748L192.703 56.4393Z" fill="#6E5395"/>
<path d="M206.153 66.243L200.968 75.4281L200.635 75.2765L205.253 66.6886L206.153 66.243Z" fill="#D5D3D3"/>
<path d="M192.97 56.2415L206.149 66.242C206.115 66.3256 206.062 66.4001 205.996 66.4601C205.93 66.5201 205.851 66.5641 205.766 66.5887C205.605 66.6657 205.427 66.6997 205.249 66.6876L191.39 56.9728C191.77 56.8879 192.136 56.7492 192.478 56.5604C192.633 56.4396 192.797 56.3329 192.97 56.2415Z" fill="#F4F3F3"/>
<path d="M191.055 56.5816L205.497 66.4648L200.803 75.5713L200.048 76.8324L185.605 65.8814C185.605 65.8814 187.126 63.5553 188.043 62.1519C188.959 60.7484 190.751 57.4368 190.847 57.2232C190.93 57.0143 191 56.8 191.055 56.5816Z" fill="#6E5395"/>
<path d="M29.6328 37.385C29.344 37.5978 29.1356 37.906 29.0425 38.2577C28.9495 38.6094 28.9775 38.9832 29.1219 39.3163C29.6328 40.5237 31.8723 44.1053 34.8988 43.9842C35.0225 43.9796 31.0869 37.384 31.0869 37.384L29.6328 37.385Z" fill="#F97A5D"/>
<path d="M25.0066 103.415C25.0066 103.415 21.2227 99.953 20.0123 100.573C18.532 101.331 10.0615 109.831 10.3928 113.837C10.5291 115.477 12.393 114.071 15.7184 110.542C16.6667 109.53 17.8695 108.806 19.1942 108.45C20.5188 108.094 21.9137 108.12 23.2248 108.525L25.0066 103.415Z" fill="#6E5395"/>
<path d="M34.201 109.253L29.6327 106.447C29.6327 106.447 17.7936 117.818 19.6432 119.331C21.0459 120.48 21.8699 119.449 25.1926 115.92C26.1524 114.919 27.3861 114.24 28.7306 113.973C30.0752 113.705 31.4674 113.861 32.7234 114.421L34.201 109.253Z" fill="#6E5395"/>
<path d="M62.1009 71.8521L62.9576 84.3091L43.9487 79.2362L62.1009 71.8521Z" fill="#E0A584"/>
<path d="M43.9435 79.6606C43.9435 79.6606 60.5747 80.734 62.7898 79.9777C62.7898 79.9777 66.0393 112.681 60.2561 116.209C54.4728 119.737 41.4937 114.571 41.4937 114.571L44.9977 107.514L52.5529 107.009V94.4104L52.0113 94.5361L43.9435 79.6606Z" fill="#1D262D"/>
<path d="M23.0958 101.971C23.0958 101.971 18.913 103.736 20.266 108.021C20.266 108.021 34.5459 119.485 41.4935 116.843C45.3866 115.364 49.5686 104.049 52.4941 94.3846L62.7887 79.9814C62.7887 79.9814 57.9325 80.2301 56.3132 80.2237C53.218 80.2116 43.9469 79.6689 43.9469 79.6689C43.9469 79.6689 39.1024 105.631 37.3766 106.261C35.6507 106.891 23.0958 101.971 23.0958 101.971Z" fill="#2C373F"/>
<path d="M47.8167 47.1026C47.8167 47.1026 57.7837 37.5245 59.5059 35.0034C61.2282 32.4822 64.9218 24.0394 69.472 20.5096L67.2579 15.7206C67.2579 15.7206 68.6118 14.9643 69.472 16.9807C69.472 16.9807 72.671 10.4277 73.4094 10.5534C74.1478 10.6792 71.9336 15.5948 71.9336 15.5948C71.9336 15.5948 75.0107 11.0582 75.8718 11.1839C76.7329 11.3097 73.6567 16.2845 73.6567 16.2845C73.6567 16.2845 77.1012 12.1926 77.594 12.6965C78.0869 13.2003 74.8861 16.2845 74.8861 16.2845C74.8861 16.2845 78.3306 14.2589 78.7007 14.9264C79.0708 15.5939 75.2553 17.3588 75.2553 17.3588C75.1269 18.2124 74.8181 19.027 74.3504 19.7456C73.8826 20.4642 73.2673 21.0695 72.5473 21.5192C72.5473 21.5192 67.9186 34.3275 63.7348 38.487L50.3007 52.7921L47.8167 47.1026Z" fill="#FFC5B1"/>
<path d="M35.9216 52.0663C35.9216 52.0663 26.4772 62.1852 24.0004 63.9252C21.5235 65.6652 13.2454 69.3679 9.75755 73.9979L5.10256 71.6866C5.10256 71.6866 4.35157 73.066 6.31301 73.9665C6.31301 73.9665 -0.115611 77.1819 0.000830511 77.9419C0.117272 78.7019 4.93651 76.4765 4.93651 76.4765C4.93651 76.4765 0.478335 79.5857 0.592971 80.4677C0.707607 81.3497 5.59273 78.2488 5.59273 78.2488C5.59273 78.2488 1.56601 81.7389 2.05344 82.2474C2.54086 82.7559 5.58187 79.509 5.58187 79.509C5.58187 79.509 3.57169 83.0222 4.22069 83.4031C4.86969 83.784 6.62716 79.8973 6.62716 79.8973C7.4615 79.7741 8.25948 79.4657 8.96531 78.9936C9.67113 78.5215 10.2677 77.8973 10.7134 77.1644C10.7134 77.1644 22.5598 72.3374 26.6587 68.0911L41.3998 57.3934L35.9216 52.0663Z" fill="#FFC5B1"/>
<path d="M39.4626 48.0335L34.6858 52.8226L35.8971 58.2218C35.8971 58.2218 40.6035 69.7931 41.313 72.6157C42.4196 77.0053 40.6306 83.6979 40.6306 83.6979C40.6306 83.6979 48.6082 83.0202 55.8673 82.7679C63.1264 82.5155 65.5003 80.12 65.5003 80.12C65.5003 80.12 59.2071 58.6498 54.8617 52.6487C50.5164 46.6477 48.935 44.77 48.935 44.77L42.5361 46.202L39.4626 48.0335Z" fill="white"/>
<path d="M53.4798 51.9425L58.457 48.6854C58.457 48.6854 59.217 45.1962 53.2153 41.0803L46.1747 45.5966L53.4798 51.9425Z" fill="white"/>
<path d="M35.6922 52.4444C32.9635 52.8364 27.9773 59.9192 27.4213 59.9053C27.4213 59.9053 30.9307 65.7705 33.71 65.961C33.71 65.961 45.9427 50.9717 35.6922 52.4444Z" fill="white"/>
<path d="M45.3234 47.8357C45.3234 47.8357 41.3572 44.8015 41.4953 43.5912C41.5296 43.2862 42.0793 42.7915 42.222 42.3524C42.991 39.9902 39.2838 33.9013 37.0056 32.6181C35.2138 31.6085 35.9991 31.5188 32.2278 33.8144C28.4566 36.11 30.6031 40.0799 32.2892 42.1351C32.8979 42.9431 33.6591 43.6174 34.5275 44.1177C35.396 44.618 36.3538 44.9342 37.3441 45.0474L39.6765 50.3541L45.3234 47.8357Z" fill="#FFC5B1"/>
<path d="M38.1672 52.0488C37.4171 50.1646 38.8379 47.7904 41.34 46.7448C43.8421 45.6992 46.4797 46.375 47.2307 48.2629C47.9817 50.1507 45.4615 52.9779 44.0561 53.5668C42.6506 54.1558 38.9191 53.9283 38.1672 52.0488Z" fill="#FFC5B1"/>
<path d="M32.2902 42.1323C32.2902 42.1323 31.0039 42.0593 30.8613 42.9376C30.7187 43.8159 33.2199 43.8159 34.1487 43.1576L32.2902 42.1323Z" fill="#FFC5B1"/>
<path d="M32.9366 42.9377C32.692 41.3512 31.041 40.1715 31.1241 38.6257C31.3227 38.5988 31.512 38.5232 31.676 38.4054C31.84 38.2875 31.9738 38.1309 32.0661 37.9487C32.1583 37.7666 32.2062 37.5643 32.2058 37.3592C32.2054 37.154 32.1567 36.9519 32.0637 36.7702C31.922 36.4327 31.6819 36.1443 31.5285 35.8124C31.375 35.4804 31.3353 35.045 31.57 34.8573C31.6917 34.7799 31.832 34.7386 31.9753 34.7381C33.1487 34.6151 35.158 34.9747 36.2375 34.5652C37.2657 34.175 38.3669 33.416 38.2595 32.1263C38.1692 31.0039 37.198 30.0923 36.3089 29.4054C35.7989 29.0106 34.3429 27.9798 33.7941 28.0722C32.9546 28.2155 32.7525 29.361 32.6911 30.3207C32.4248 30.0682 32.0761 29.9267 31.7133 29.9238C31.3505 29.9208 30.9997 30.0568 30.7296 30.305C30.2473 30.8469 29.9116 31.5085 29.7557 32.2243C29.5994 32.9402 29.2687 33.604 28.7943 34.1538C28.325 34.5966 27.583 34.9313 27.6805 35.6829C27.7969 36.5788 28.9387 36.8977 29.4677 37.6614C29.3377 37.4765 29.2276 38.671 29.3025 38.8734C29.6097 39.4369 30.0146 39.9382 30.4976 40.3527C31.3605 41.353 31.7848 42.3561 32.9366 42.9377Z" fill="#F97A5D"/>
<path d="M40.1188 39.3098L37.188 40.8621C37.188 40.8621 40.7083 43.4803 40.1188 39.3098Z" fill="white"/>
<path d="M36.0866 39.9246C36.2464 40.2361 36.009 40.6864 35.5568 40.9295C35.1046 41.1727 34.6081 41.1144 34.4483 40.8075C34.2886 40.5006 34.5251 40.0457 34.9773 39.8025C35.4295 39.5594 35.9269 39.6139 36.0866 39.9246Z" fill="#F4B19F"/>
<path d="M40.3661 36.93C40.5258 37.2416 40.2885 37.6919 39.8362 37.935C39.384 38.1782 38.8875 38.1199 38.7278 37.8139C38.568 37.5079 38.8045 37.0521 39.2567 36.808C39.7089 36.5639 40.2063 36.6222 40.3661 36.93Z" fill="#F4B19F"/>
<path d="M38.0735 39.1988C38.059 39.1813 38.115 39.1064 38.2414 39.0139C38.415 38.9069 38.5782 38.783 38.7288 38.6441C38.8831 38.4768 38.9391 38.1282 38.7017 38.0792C38.4553 37.9932 38.1755 38.2826 37.855 38.5581L37.6194 38.7588C37.5684 38.8087 37.508 38.8476 37.442 38.873C37.3759 38.8984 37.3054 38.9099 37.2349 38.9067C37.1228 38.8812 37.0167 38.8333 36.9228 38.7655C36.8289 38.6977 36.749 38.6115 36.6879 38.5119C36.4841 38.2427 36.3311 37.937 36.2366 37.6105C36.0795 37.0558 36.1463 36.686 36.1878 36.6943C36.2411 36.6943 36.2583 37.0382 36.4587 37.5264C36.575 37.811 36.7336 38.0754 36.9289 38.3104C37.0354 38.4435 37.1708 38.5674 37.2656 38.5711C37.3062 38.5711 37.3378 38.5591 37.4136 38.4943L37.6465 38.2937C37.8081 38.1597 37.948 38.0247 38.133 37.8989C38.2278 37.829 38.3367 37.7817 38.4516 37.7606C38.5666 37.7395 38.6848 37.7451 38.7974 37.7769C38.9102 37.8139 39.0068 37.8904 39.07 37.993C39.1332 38.0957 39.1591 38.2178 39.1431 38.3381C39.1183 38.5192 39.0328 38.6859 38.9012 38.8096C38.7228 38.9504 38.5218 39.0583 38.3072 39.1286C38.1646 39.185 38.0879 39.2182 38.0735 39.1988Z" fill="#F97A5D"/>
<path d="M37.3459 45.0446C38.3423 45.0558 39.3287 44.8412 40.2344 44.4159C39.5526 45.1567 38.6439 45.6363 37.6592 45.7749L37.3459 45.0446Z" fill="#EDA091"/>
<path d="M38.1565 36.4549C38.1393 36.5473 37.8785 36.5787 37.6023 36.7036C37.3261 36.8284 37.1203 36.9911 37.0417 36.9384C36.9632 36.8857 37.0941 36.5529 37.4732 36.3901C37.8523 36.2274 38.1818 36.3689 38.1565 36.4549Z" fill="#2C373F"/>
<path d="M34.4935 38.9187C34.4231 38.8651 34.5333 38.5572 34.8031 38.2484C35.073 37.9396 35.4233 37.8278 35.4603 37.9156C35.4973 38.0034 35.287 38.2013 35.0487 38.4786C34.8104 38.756 34.5703 38.9788 34.4935 38.9187Z" fill="#2C373F"/>
<path d="M33.0728 38.4435C32.9212 38.3279 32.802 37.8361 33.3824 37.1732C33.9682 36.4955 34.6217 36.6185 34.7002 36.8034C34.7788 36.9883 34.5667 37.2518 34.0531 37.8472C33.5395 38.4426 33.2371 38.5692 33.0728 38.4435Z" fill="#F97A5D"/>
<path d="M36.1507 35.8298C36.0668 35.669 36.1598 35.2021 36.9135 34.8757C37.6672 34.5494 38.188 34.9109 38.1772 35.1032C38.1663 35.2955 37.8875 35.4295 37.2168 35.7254C36.5461 36.0212 36.2401 36.0055 36.1507 35.8298Z" fill="#F97A5D"/>
<path d="M196.971 40.4802C196.301 41.3165 195.467 41.9993 194.523 42.4846C192.307 43.8093 189.791 44.5165 187.226 44.536C184.66 44.5555 182.135 43.8864 179.9 42.5955C178.949 42.1245 178.106 41.4542 177.424 40.6281C177.494 40.5357 178.417 41.316 180.119 42.1693C182.323 43.2947 184.755 43.8716 187.218 43.8529C189.68 43.8343 192.103 43.2207 194.291 42.0621C195.987 41.1838 196.899 40.3905 196.971 40.4802Z" fill="#6E5395"/>
<path d="M178.595 39.0639C177.764 38.9015 176.943 38.6932 176.135 38.4398C175.246 38.2407 174.348 38.0892 173.443 37.9859C172.42 37.8703 171.288 37.7778 170.092 37.6909C168.896 37.604 167.751 37.506 166.712 37.3738C165.788 37.2597 164.872 37.0852 163.969 36.8515C163.118 36.6934 162.306 36.3638 161.581 35.8817C162.42 35.9945 163.251 36.1612 164.07 36.3809C164.834 36.5297 165.755 36.6453 166.778 36.7507C167.802 36.8561 168.945 36.9254 170.139 37.0114C171.333 37.0974 172.486 37.2111 173.522 37.3637C174.445 37.4979 175.358 37.7015 176.252 37.9729C177.099 38.1663 177.896 38.5378 178.595 39.0639Z" fill="#6E5395"/>
<path d="M160.374 18.9389C163.245 18.3158 166.22 18.852 169.116 19.3466C172.012 19.8412 175.018 20.2868 177.849 19.4908C182.961 18.0541 186.84 12.7649 192.141 12.8074C194.323 12.825 196.383 13.7791 198.507 14.2867C201.147 14.9144 203.898 14.846 206.573 15.2944C209.248 15.7428 212.012 16.843 213.523 19.1478C215.317 21.8826 214.825 25.7406 212.943 28.4115C211.061 31.0825 208.047 32.7097 204.959 33.6323C202.805 34.2795 200.51 34.6493 198.646 35.927C196.76 37.2213 195.529 39.3043 193.772 40.7761C189.364 44.4677 182.504 43.4101 177.95 39.908C176.868 38.9491 175.699 38.0969 174.461 37.3628C169.232 34.7418 161.713 38.2115 157.211 33.4428C152.644 28.5964 153.292 20.4782 160.374 18.9389Z" fill="#6E5395"/>
<path d="M158.939 112.735C158.939 112.735 163.729 123.251 164.289 121.304C164.743 118.898 164.769 116.427 164.363 114.011C164.061 113.343 162.106 110.394 162.106 110.394L158.939 112.735Z" fill="#F4B19F"/>
<path d="M193.575 27.7015C194.018 28.283 193.721 27.658 194.224 28.4975C195.583 28.3639 196.835 27.6877 197.71 26.6151C197.71 26.6151 201.021 26.7076 200.982 26.0993C200.943 25.4909 197.809 25.7193 197.809 25.7193C197.809 25.7193 201.127 24.6515 200.944 24.1189C200.762 23.5864 196.934 25.2857 196.934 25.2857C196.934 25.2857 200.799 22.8283 200.228 22.4344C199.658 22.0406 195.939 24.1864 195.939 24.1864C195.939 24.1864 199.171 21.4674 198.686 21.117C198.201 20.7666 193.721 24.3048 193.721 24.3048C193.786 22.5648 192.567 22.6258 192.567 22.6258L192.617 26.8786C192.959 27.1248 193.279 27.4 193.575 27.7015Z" fill="#FFC5B1"/>
<path d="M144.502 8.46364C143.793 8.59677 144.343 8.34437 143.419 8.6319C142.961 8.12358 142.61 7.52559 142.385 6.87407C142.159 6.22256 142.066 5.53105 142.109 4.84136C142.109 4.84136 139.576 2.65763 139.996 2.23143C140.416 1.80522 142.613 4.10544 142.613 4.10544C142.613 4.10544 140.825 1.05451 141.306 0.777155C141.788 0.499798 143.551 4.37632 143.551 4.37632C143.551 4.37632 142.253 -0.0891249 142.936 0.00425192C143.618 0.0976287 145.012 4.23025 145.012 4.23025C145.012 4.23025 144.358 0.000556557 144.947 0.0698958C145.535 0.139235 146.595 5.83152 146.595 5.83152C147.678 4.48542 148.547 5.36002 148.547 5.36002L145.811 8.44145C145.374 8.421 144.937 8.42841 144.502 8.46364Z" fill="#FFC5B1"/>
<path d="M161.686 26.2185C160.77 26.0651 158.555 27.573 157.444 30.0303C157.045 30.7935 156.809 31.6348 156.751 32.4985C156.693 33.3622 156.815 34.2286 157.109 35.0403C157.444 36.0924 158.146 36.2237 158.302 36.6952C158.304 37.5436 158.149 38.3847 157.845 39.1739L160.462 40.2556C160.632 38.9612 160.823 37.6669 162.111 37.102C162.605 36.9282 163.089 36.7247 163.56 36.4928C164.785 35.7735 165.44 34.1999 165.942 32.9112C166.319 31.9487 163.986 26.6041 161.686 26.2185Z" fill="#FFC5B1"/>
<path d="M158.573 62.7418L154.193 60.9409C154.193 60.9409 141.194 85.6339 141.246 92.4856C141.297 99.3372 159.101 113.057 159.101 113.057L162.104 110.399C162.104 110.399 156.608 100.583 153.67 97.123C150.732 93.6625 158.573 62.7418 158.573 62.7418Z" fill="#F4B19F"/>
<path d="M180.323 90.8723C180.323 90.8723 189.982 86.1804 188.038 85.7662C185.66 85.4971 183.254 85.6722 180.936 86.283C180.311 86.6445 177.596 88.8827 177.596 88.8827L180.323 90.8723Z" fill="#FFC5B1"/>
<path d="M162.876 62.5273L156.231 65.0041C156.231 65.0041 149.584 94.9503 152.121 99.6524C154.658 104.355 161.785 101.244 171.935 95.5688L180.437 90.8149L177.599 88.8799C177.599 88.8799 167.706 90.8658 164.928 92.8452C164.928 92.8452 166.377 88.6377 168.311 82.6976C170.244 76.7575 171.577 70.6945 162.876 62.5273Z" fill="#FFC5B1"/>
<path d="M154.696 42.125C154.696 40.1354 155.322 38.6959 157.264 38.6959C159.207 38.6959 161.892 39.3939 161.892 41.3835C161.892 43.3731 160.358 46.6052 158.418 46.6052C156.478 46.6052 154.696 44.1155 154.696 42.125Z" fill="#FFC5B1"/>
<path d="M156.231 38.412C156.231 38.412 150.19 31.7157 148.982 25.1572C147.773 18.5986 145.719 7.95642 145.719 7.95642L143.424 8.63317C143.424 8.63317 142.336 23.1778 143.424 25.4049C144.512 27.6321 149.825 42.4624 151.442 46.3565L156.231 38.412Z" fill="#FFC5B1"/>
<path d="M162.72 43.6301C162.72 43.6301 163.185 41.5471 170.823 38.7162C178.461 35.8853 192.872 26.7113 192.872 26.7113L194.31 28.3958C194.31 28.3958 186.479 37.6595 181.925 39.2848C177.37 40.9101 167.693 47.3161 166.698 47.8293C165.193 48.6049 165.212 49.5812 162.72 43.6301Z" fill="#FFC5B1"/>
<path d="M156.23 38.412C156.23 38.412 150.092 40.446 150.092 50.0139C150.092 50.0139 150.092 63.1144 151.542 65.4978C153.285 65.87 155.083 65.87 156.826 65.4978C159.008 64.9126 161.061 63.9043 162.873 62.5273L167.702 47.6822L167.124 40.7271L160.56 39.4327C160.56 39.4327 162.443 48.4459 155.63 44.5712C154.305 43.8187 157.577 38.7042 157.577 38.7042L156.23 38.412Z" fill="#2C373F"/>
<path d="M151.037 46.191L148.013 39.7378C148.013 39.7378 148.446 35.8234 153.998 34.42C154.259 35.3824 154.654 36.301 155.172 37.1473C155.886 37.7974 156.699 38.3228 157.579 38.7024L151.037 46.191Z" fill="#2C373F"/>
<path d="M162.47 48.7852L172.087 46.7661C172.087 46.7661 173.758 43.2177 169.794 39.0001C169.794 39.0001 162.293 39.4623 161.322 39.5465C160.366 39.6278 161.023 40.3785 161.023 40.3785L162.47 48.7852Z" fill="#2C373F"/>
<path d="M151.528 62.3054C151.528 62.3054 142.432 79.5293 140.93 82.607C140.93 82.607 167.764 95.2323 178.661 80.0359C178.661 80.0359 172.464 66.6035 162.885 61.4891L158.753 60.2225L151.694 62.2231" fill="#2C373F"/>
<path d="M165.591 32.7447C165.591 32.7447 166.627 31.6834 167.264 32.4184C167.901 33.1534 164.953 34.2138 164.953 34.2138L165.591 32.7447Z" fill="#FFC5B1"/>
<path d="M184.542 18.2732C184.184 18.4753 183.793 18.6108 183.389 18.6735C182.305 18.9201 181.2 19.0499 180.09 19.0609C178.45 19.0693 176.812 18.9512 175.189 18.7077C173.36 18.459 171.374 18.0947 169.283 17.8608C167.335 17.6068 165.362 17.6149 163.416 17.8849C161.838 18.13 160.316 18.6659 158.924 19.4667C157.989 20.0146 157.146 20.7136 156.428 21.5367C155.923 22.1266 155.695 22.5029 155.644 22.4714C155.763 22.0681 155.961 21.6937 156.225 21.3712C156.894 20.4478 157.726 19.662 158.68 19.0553C160.097 18.158 161.671 17.5505 163.314 17.2664C165.314 16.9505 167.348 16.9232 169.356 17.185C171.481 17.4226 173.47 17.8081 175.277 18.0873C176.871 18.3547 178.479 18.519 180.093 18.5792C181.581 18.5718 183.067 18.4696 184.542 18.2732Z" fill="#6E5395"/>
<path d="M160.314 32.1447C160.314 32.1863 160.016 32.215 159.566 32.0624C159.433 32.0195 159.31 31.9487 159.205 31.8544C159.139 31.792 159.087 31.7149 159.054 31.6288C159.005 31.5053 159.005 31.3669 159.054 31.2433C159.069 31.2211 159.068 31.1684 159.097 31.1666H159.187C159.25 31.1645 159.314 31.1723 159.375 31.1897C159.455 31.2047 159.535 31.213 159.617 31.2146C159.77 31.2178 159.923 31.202 160.072 31.1675C160.337 31.1057 160.586 30.985 160.8 30.8139C161.014 30.6428 161.189 30.4254 161.312 30.1773C161.509 29.789 161.528 29.4969 161.583 29.5006C161.62 29.5006 161.694 29.8066 161.53 30.2744C161.431 30.5477 161.274 30.7948 161.069 30.9974C160.813 31.2481 160.495 31.4218 160.149 31.4994C159.895 31.5589 159.631 31.5658 159.374 31.5197C159.342 31.5142 159.346 31.5068 159.34 31.5105C159.337 31.5131 159.336 31.5162 159.335 31.5196C159.334 31.5229 159.334 31.5265 159.334 31.5299C159.348 31.5767 159.372 31.6196 159.404 31.6556C159.479 31.7336 159.568 31.7963 159.665 31.8406C160.045 32.0356 160.322 32.0939 160.314 32.1447Z" fill="#F97A5D"/>
<path d="M158.157 32.2603L161.7 33.6896C161.7 33.6896 158.586 35.8891 158.157 32.2603Z" fill="white"/>
<path d="M163.212 32.9444C163.085 33.1885 162.695 33.232 162.34 33.0369C161.984 32.8418 161.798 32.4914 161.924 32.2464C162.049 32.0014 162.44 31.9589 162.796 32.154C163.151 32.3491 163.337 32.7022 163.212 32.9444Z" fill="#F4B19F"/>
<path d="M159.258 30.8005C159.151 31.0547 158.765 31.1278 158.396 30.9641C158.027 30.8005 157.815 30.4621 157.922 30.2088C158.03 29.9555 158.415 29.8815 158.784 30.0451C159.154 30.2088 159.365 30.5472 159.258 30.8005Z" fill="#F4B19F"/>
<path d="M157.946 36.2394C158.296 36.5355 158.702 36.7528 159.139 36.8772C159.577 37.0016 160.034 37.0303 160.483 36.9615C160.483 36.9615 160.036 37.6484 158.317 37.396C158.356 37.1868 158.342 36.9709 158.277 36.7685C158.213 36.5662 158.098 36.3841 157.946 36.2394Z" fill="#EDA091"/>
<path d="M162.868 30.6683C162.868 30.7252 162.852 30.7808 162.821 30.8282C162.79 30.8757 162.747 30.9126 162.695 30.9346C162.644 30.9565 162.588 30.9623 162.533 30.9513C162.479 30.9403 162.428 30.913 162.389 30.8728C162.35 30.8326 162.323 30.7814 162.312 30.7256C162.301 30.6698 162.307 30.612 162.328 30.5594C162.349 30.5068 162.385 30.4618 162.431 30.4302C162.477 30.3985 162.532 30.3817 162.587 30.3817C162.662 30.3817 162.733 30.4118 162.785 30.4655C162.838 30.5193 162.868 30.5922 162.868 30.6683Z" fill="#2C373F"/>
<path d="M160.295 30.1089C160.45 30.1089 160.576 29.9802 160.576 29.8214C160.576 29.6626 160.45 29.5339 160.295 29.5339C160.14 29.5339 160.015 29.6626 160.015 29.8214C160.015 29.9802 160.14 30.1089 160.295 30.1089Z" fill="#2C373F"/>
<path d="M163.774 29.9037C163.684 29.9406 163.52 29.7336 163.267 29.5653C163.014 29.397 162.767 29.311 162.768 29.214C162.769 29.1169 163.111 29.0476 163.452 29.2815C163.793 29.5154 163.86 29.8759 163.774 29.9037Z" fill="#6E5395"/>
<path d="M159.726 28.5095C159.72 28.4171 160.022 28.3061 160.425 28.3182C160.829 28.3302 161.139 28.5317 161.098 28.6168C161.056 28.7018 160.773 28.6658 160.413 28.6593C160.053 28.6528 159.731 28.6066 159.726 28.5095Z" fill="#6E5395"/>
<path d="M160.991 117.008C160.991 117.008 162.465 122.364 163.986 121.926C165.507 121.488 164.364 114.011 164.364 114.011L162.845 111.554C162.845 111.554 164.272 124.069 160.991 117.008Z" fill="#2C373F"/>
<path d="M179.572 87.3083C180.211 86.6135 181.036 86.1276 181.943 85.9113C183.242 85.7116 187.886 85.1458 188.568 85.7782C189.25 86.4105 184.804 88.5295 184.804 88.5295C184.804 88.5295 186.353 87.519 185.707 87.1428C184.574 86.4762 179.572 87.3083 179.572 87.3083Z" fill="#2C373F"/>
<path d="M177.73 88.7422L179.184 91.7654L179.978 91.3142L178.039 88.3363L177.73 88.7422Z" fill="#2C373F"/>
<path d="M161.474 109.182L157.906 112.477L158.963 113.379L161.959 110.04L161.474 109.182Z" fill="#2C373F"/>
<path d="M86.8669 76.384C85.8523 73.8046 85.4624 70.9293 83.9477 68.6245C81.7687 65.3027 77.5832 63.6543 75.8149 60.0856C75.1138 58.5371 74.7739 56.8428 74.822 55.1366C74.8075 51.7732 75.7905 48.2027 78.326 46.0615C81.2398 43.606 85.6122 43.6402 89.0242 45.2905C92.4362 46.9407 95.0439 49.9343 97.2599 53.062C99.4759 56.1897 101.417 59.5457 103.999 62.3645C105.913 64.454 108.183 66.2559 109.625 68.7114C113.578 75.4419 109.511 83.9577 102.533 86.3874C96.397 88.5249 88.9881 81.7795 86.8669 76.384Z" fill="#2C373F"/>
<path d="M78.1355 123.856C78.7421 124.368 78.0805 124.014 78.9632 124.603C78.8466 125.337 78.5888 126.041 78.2047 126.673C77.8206 127.305 77.3178 127.853 76.7256 128.284C76.7256 128.284 76.6353 131.88 75.9845 131.806C75.3337 131.732 75.7481 128.344 75.7481 128.344C75.7481 128.344 74.4049 131.886 73.8372 131.66C73.2694 131.435 75.3256 127.372 75.3256 127.372C75.3256 127.372 72.4444 131.434 72.0481 130.792C71.6519 130.151 74.1883 126.233 74.1883 126.233C74.1883 126.233 71.0579 129.594 70.7041 129.05C70.3502 128.507 74.4401 123.832 74.4401 123.832C72.5445 123.81 72.6818 122.491 72.6818 122.491L77.2916 122.768C77.5419 123.155 77.8243 123.519 78.1355 123.856Z" fill="#FFC5B1"/>
<path d="M122.174 56.0353C122.963 56.1768 122.354 55.9096 123.374 56.2147C123.88 55.6871 124.272 55.0561 124.523 54.3629C124.774 53.6697 124.88 52.9299 124.832 52.1921C124.832 52.1921 127.651 49.8808 127.184 49.424C126.716 48.9673 124.267 51.4108 124.267 51.4108C124.267 51.4108 126.257 48.175 125.722 47.881C125.187 47.587 123.224 51.6984 123.224 51.6984C123.224 51.6984 124.668 46.963 123.909 47.0619C123.15 47.1608 121.603 51.5431 121.603 51.5431C121.603 51.5431 122.331 47.0573 121.676 47.1285C121.02 47.1997 119.961 53.075 119.961 53.075C118.417 51.788 117.337 52.6127 117.337 52.6127L120.715 56.0057C121.202 55.9858 121.689 55.9957 122.174 56.0353Z" fill="#FFC5B1"/>
<path d="M102.874 75.675C104.301 75.4466 108.651 78.3339 107.543 84.1963C107.285 84.886 106.993 85.5615 106.666 86.2201C106.469 86.7877 108.008 88.8651 108.008 88.8651L104.036 90.165C103.866 88.9363 104.152 87.14 102.868 86.6065C102.376 86.4414 101.894 86.2479 101.424 86.0269C100.201 85.3427 99.5473 83.8468 99.0454 82.6209C98.6396 81.7117 98.4185 80.7275 98.3955 79.7281C98.419 77.2273 100.582 76.0411 102.874 75.675Z" fill="#FFC5B1"/>
<path d="M110.827 91.7302C110.827 89.6205 110.174 88.8143 108.012 88.8143C105.85 88.8143 102.995 89.6195 102.995 91.7302C102.995 93.8409 104.523 96.4813 106.685 96.4813C108.848 96.4813 110.827 93.8391 110.827 91.7302Z" fill="#FFC5B1"/>
<path d="M109.12 87.7918C109.12 87.7918 115.843 80.6914 117.188 73.739C118.533 66.7866 120.818 55.4991 120.818 55.4991L123.374 56.2165C123.374 56.2165 124.584 71.6394 123.374 74.0016C122.163 76.3637 115.305 92.7694 115.439 96.9658L109.12 87.7918Z" fill="#FFC5B1"/>
<path d="M97.1344 91.2291C97.1344 91.2291 94.8481 91.623 91.3512 99.7588C87.8544 107.895 77.0957 123.042 77.0957 123.042L78.8441 124.691C78.8441 124.691 89.3329 116.688 91.3494 111.832C93.3659 106.977 95.9213 100.94 97.1326 101.2C98.344 101.46 103.453 94.2458 97.1344 91.2291Z" fill="#FFC5B1"/>
<path d="M115.136 98.0484L118.266 89.1979C118.266 89.1979 117.783 85.0468 111.605 83.5583L108.104 88.7246L115.136 98.0484Z" fill="#F97A5D"/>
<path d="M98.1779 90.5505C98.1779 90.5505 94.4843 90.8695 91.4911 97.6037C91.4911 97.6037 94.784 102.259 97.1922 102.416C97.1922 102.415 106.137 94.5852 98.1779 90.5505Z" fill="#F97A5D"/>
<path d="M108.326 170.417C108.326 170.417 102.994 181.568 102.369 179.503C101.862 176.955 101.834 174.33 102.287 171.771C102.622 171.063 104.801 167.935 104.801 167.935L108.326 170.417Z" fill="#FFC5B1"/>
<path d="M108.734 117.401L113.609 115.492C113.609 115.492 128.079 141.678 128.018 148.942C127.958 156.207 108.145 170.753 108.145 170.753L104.805 167.934C104.805 167.934 114.193 153.789 117.467 150.121C119.102 148.286 107.395 139.291 105.622 130.637C103.849 121.982 108.734 117.401 108.734 117.401Z" fill="#5D4484"/>
<path d="M79.4191 164.576C79.4191 164.576 69.4458 172.106 69.861 169.992C70.6167 167.482 71.8228 165.138 73.4174 163.081C74.0493 162.601 77.4532 160.795 77.4532 160.795L79.4191 164.576Z" fill="#FFC5B1"/>
<path d="M95.4736 126.675L109.899 118.112C109.899 118.112 110.472 147.857 107.01 154.288C103.549 160.719 79.1068 164.793 79.1068 164.793L77.4586 160.794C77.4586 160.794 92.5328 151.592 97.167 149.792C101.801 147.992 95.4736 126.675 95.4736 126.675Z" fill="#6E5395"/>
<path d="M104.06 112.255C104.06 112.255 93.439 116.107 95.4691 126.677C97.4991 137.247 100.885 139.226 100.885 139.226L106.976 128.988L113.091 115.583L106.976 114.789L104.06 112.255Z" fill="#6E5395"/>
<path d="M109.121 87.7899C111.527 89.3515 113.506 91.5131 114.874 94.0722C116.241 96.6312 116.952 99.504 116.94 102.421C116.94 102.421 115.947 113.985 114.337 116.512C112.396 116.907 110.398 116.907 108.456 116.512C106.04 115.9 103.757 114.832 101.723 113.363L99.0507 99.2059L96.9746 90.9388L98.1011 90.5579L103.983 89.8968C103.983 89.8968 103.138 98.8952 109.705 94.427C111.087 93.4858 107.982 88.7939 107.982 88.7939L109.121 87.7899Z" fill="#F97A5D"/>
<path d="M113.906 49.4629L130.303 59.2628L139.526 41.4195L124.155 32.6726L113.906 49.4629Z" fill="white"/>
<path d="M136.716 134.877L148.444 127.442L138.755 110.121L128.036 117.24L136.716 134.877Z" fill="white"/>
<path d="M78.9795 61.0721C79.3489 61.3516 79.6746 61.687 79.9453 62.0669C80.7494 63.0441 81.462 64.0965 82.0738 65.2103C82.9887 66.8654 83.6982 68.631 84.186 70.4662C84.6775 72.6949 85.2911 74.8935 86.0238 77.0516C86.4614 78.1243 87.0223 79.1398 87.6946 80.0766C88.3381 80.9396 89.0638 81.7349 89.8609 82.4508C91.2322 83.6513 92.7985 84.5957 94.4888 85.241C95.6333 85.6783 96.8259 85.9699 98.0398 86.1092C98.4938 86.1223 98.9456 86.1789 99.3893 86.2783C98.9408 86.3834 98.4789 86.4146 98.0208 86.3708C96.7662 86.3315 95.5241 86.1031 94.3345 85.6931C92.5574 85.0893 90.9058 84.1512 89.4647 82.9269C88.6211 82.193 87.8543 81.3713 87.1765 80.4751C86.463 79.4977 85.87 78.4338 85.4108 77.3077C84.6662 75.1239 84.0605 72.893 83.5975 70.6289C83.1475 68.8291 82.4985 67.0878 81.6631 65.4387C81.0971 64.324 80.4559 63.2511 79.7441 62.2278C79.4521 61.8698 79.1959 61.4826 78.9795 61.0721Z" fill="#2C373F"/>
<path d="M99.1239 49.6108C99.2439 49.5923 99.3613 51.2454 100.265 53.6898C100.794 55.1143 101.494 56.4658 102.349 57.7133C102.856 58.4471 103.412 59.1443 104.013 59.8C104.635 60.4943 105.314 61.1979 105.955 61.9883C107.099 63.5034 108.105 65.1232 108.959 66.8273C109.731 68.1831 110.342 69.6281 110.78 71.1319C111.075 72.1591 111.163 73.2371 111.038 74.3002C111.012 74.6925 110.9 75.0738 110.711 75.4161C110.704 75.0348 110.727 74.6535 110.781 74.2762C110.802 73.2541 110.649 72.2361 110.329 71.2677C109.839 69.8248 109.201 68.4392 108.426 67.1342C107.56 65.4817 106.564 63.9047 105.447 62.4191C104.83 61.6592 104.162 60.9566 103.535 60.2465C102.921 59.563 102.357 58.834 101.848 58.0656C100.988 56.7613 100.308 55.3421 99.8253 53.8479C99.4967 52.8472 99.2707 51.8142 99.151 50.7655C99.0738 50.3855 99.0646 49.9942 99.1239 49.6108Z" fill="#2C373F"/>
<path d="M104.15 82.0468C104.143 81.9996 104.411 81.9543 104.662 81.652C104.722 81.5881 104.763 81.5078 104.779 81.4208C104.77 81.3287 104.727 81.2436 104.659 81.1823C104.622 81.1468 104.578 81.12 104.53 81.104C104.481 81.0881 104.43 81.0832 104.38 81.0899C104.262 81.0991 104.118 81.1592 103.929 81.1879C103.754 81.2002 103.579 81.173 103.416 81.1083C103.253 81.0436 103.106 80.9429 102.985 80.8134C102.795 80.6364 102.626 80.4375 102.48 80.2208C102.234 79.851 102.158 79.581 102.196 79.5616C102.233 79.5422 102.387 79.7595 102.665 80.0711C102.825 80.2519 102.999 80.4204 103.184 80.5749C103.276 80.6671 103.386 80.7392 103.507 80.7868C103.627 80.8345 103.755 80.8568 103.884 80.8523C104.016 80.8356 104.169 80.7718 104.356 80.7598C104.452 80.7526 104.548 80.7671 104.638 80.8025C104.727 80.8378 104.808 80.893 104.874 80.9641C104.936 81.0276 104.985 81.1041 105.016 81.1885C105.047 81.2729 105.06 81.3632 105.054 81.4532C105.023 81.5987 104.945 81.7292 104.832 81.823C104.469 82.1438 104.138 82.0921 104.15 82.0468Z" fill="#F97A5D"/>
<path d="M106.088 82.3259L102.938 83.4982C102.938 83.4982 105.61 85.8927 106.088 82.3259Z" fill="white"/>
<path d="M102.624 82.1263C102.75 82.3713 102.563 82.7253 102.208 82.9167C101.854 83.1081 101.462 83.0656 101.336 82.8243C101.211 82.583 101.398 82.2261 101.753 82.0338C102.109 81.8415 102.498 81.8822 102.624 82.1263Z" fill="#F4B19F"/>
<path d="M106.357 80.1663C106.46 80.4215 106.242 80.7561 105.871 80.9133C105.5 81.0705 105.115 80.991 105.012 80.7349C104.909 80.4788 105.126 80.145 105.498 79.9878C105.87 79.8307 106.254 79.912 106.357 80.1663Z" fill="#F4B19F"/>
<path d="M103.031 86.6924C103.83 86.8178 104.646 86.7753 105.428 86.5676C104.937 87.0068 104.33 87.289 103.684 87.3794C103.527 87.0976 103.302 86.8613 103.031 86.6924Z" fill="#EDA091"/>
<path d="M104.107 79.4424C104.15 79.4791 104.181 79.5279 104.196 79.5826C104.211 79.6373 104.21 79.6954 104.193 79.7496C104.176 79.8038 104.144 79.8516 104.101 79.8869C104.057 79.9223 104.004 79.9437 103.949 79.9484C103.894 79.953 103.838 79.9408 103.79 79.9131C103.741 79.8855 103.702 79.8437 103.676 79.7931C103.651 79.7425 103.641 79.6853 103.647 79.6288C103.653 79.5723 103.676 79.519 103.712 79.4757C103.736 79.4468 103.765 79.4231 103.798 79.4058C103.83 79.3885 103.866 79.378 103.903 79.3749C103.94 79.3718 103.977 79.3761 104.012 79.3877C104.047 79.3993 104.079 79.4179 104.107 79.4424Z" fill="#2C373F"/>
<path d="M101.992 80.6886C102.035 80.7253 102.066 80.7742 102.081 80.8289C102.096 80.8835 102.095 80.9416 102.078 80.9958C102.061 81.05 102.029 81.0978 101.986 81.1332C101.942 81.1685 101.889 81.1899 101.834 81.1946C101.779 81.1992 101.723 81.187 101.675 81.1593C101.626 81.1317 101.587 81.0899 101.561 81.0393C101.536 80.9887 101.526 80.9315 101.532 80.875C101.539 80.8185 101.561 80.7652 101.597 80.7219C101.645 80.6638 101.714 80.6277 101.788 80.6215C101.862 80.6152 101.936 80.6394 101.992 80.6886Z" fill="#2C373F"/>
<path d="M104.12 78.2423C104.092 78.3348 103.829 78.3348 103.541 78.4207C103.252 78.5067 103.028 78.6463 102.957 78.5844C102.885 78.5224 103.054 78.2081 103.449 78.0934C103.845 77.9788 104.155 78.1572 104.12 78.2423Z" fill="#2C373F"/>
<path d="M100.464 80.5037C100.394 80.4501 100.504 80.1422 100.774 79.8335C101.044 79.5247 101.395 79.4128 101.431 79.5006C101.467 79.5885 101.258 79.7863 101.019 80.0637C100.781 80.341 100.541 80.5629 100.464 80.5037Z" fill="#2C373F"/>
<path d="M99.2773 82.8992C99.2773 82.8992 98.2673 82.0301 97.7825 82.816C97.2978 83.6018 99.9634 84.0179 99.9634 84.0179L99.2773 82.8992Z" fill="#FFC5B1"/>
<path d="M74.9926 162.129C74.3486 162.403 73.7362 162.749 73.1665 163.161C72.7892 163.547 69.3267 169.673 69.7672 170.447C70.2077 171.221 73.6802 168.598 73.6802 168.598C73.6802 168.598 70.7745 169.162 74.9917 162.134" fill="#6E5395"/>
<path d="M103.247 170.229C102.78 170.726 102.381 171.286 102.06 171.893C101.901 172.415 101.618 179.488 102.359 179.962C103.1 180.436 105.127 176.535 105.127 176.535C105.127 176.535 102.705 178.476 103.247 170.248" fill="#6E5395"/>
</g>
<defs>
<clipPath id="clip0">
<rect width="232" height="180" fill="white"/>
</clipPath>
</defs>
</svg>
